<svg width="1600" height="1200" viewBox="0 0 1600 1200" fill="none" xmlns="http://www.w3.org/2000/svg">
  <rect width="1600" height="1200" fill="#F0ECE4"/>
  <circle cx="1310" cy="212" r="220" fill="#D8D1C5"/>
  <circle cx="236" cy="1018" r="250" fill="#E4DED3"/>
  <rect x="118" y="116" width="1364" height="968" rx="48" fill="#151515"/>
  <rect x="176" y="176" width="1248" height="120" rx="28" fill="#202020"/>
  <rect x="228" y="220" width="232" height="30" rx="15" fill="#F4F1EA" fill-opacity="0.86"/>
  <rect x="1220" y="216" width="140" height="38" rx="19" fill="#3E3A34"/>
  <rect x="176" y="344" width="812" height="656" rx="34" fill="#1F1F1F"/>
  <rect x="1026" y="344" width="398" height="206" rx="30" fill="#201F1B"/>
  <rect x="1026" y="580" width="398" height="420" rx="30" fill="#201F1B"/>
  <rect x="242" y="408" width="680" height="120" rx="28" fill="#EEE8DE"/>
  <rect x="242" y="562" width="680" height="120" rx="28" fill="#EEE8DE"/>
  <rect x="242" y="716" width="680" height="120" rx="28" fill="#EEE8DE"/>
  <text x="286" y="488" fill="#171717" font-family="Arial, sans-serif" font-size="74" font-weight="700">A021</text>
  <text x="286" y="642" fill="#171717" font-family="Arial, sans-serif" font-size="74" font-weight="700">B114</text>
  <text x="286" y="796" fill="#171717" font-family="Arial, sans-serif" font-size="74" font-weight="700">C008</text>
  <text x="682" y="486" fill="#5C5447" font-family="Arial, sans-serif" font-size="30">Consultorio 04</text>
  <text x="682" y="640" fill="#5C5447" font-family="Arial, sans-serif" font-size="30">Triagem</text>
  <text x="682" y="794" fill="#5C5447" font-family="Arial, sans-serif" font-size="30">Sala de exames</text>
  <rect x="1080" y="394" width="112" height="112" rx="24" fill="#EEE8DE"/>
  <path d="M1136 428L1146.57 449.43L1170 452.83L1153 469.4L1157.14 492.67L1136 481.55L1114.86 492.67L1119 469.4L1102 452.83L1125.43 449.43L1136 428Z" fill="#171717"/>
  <rect x="1080" y="640" width="288" height="24" rx="12" fill="#B7AE9D"/>
  <rect x="1080" y="688" width="236" height="18" rx="9" fill="#D5CDC0"/>
  <rect x="1080" y="728" width="254" height="18" rx="9" fill="#D5CDC0"/>
  <rect x="1080" y="808" width="288" height="24" rx="12" fill="#B7AE9D"/>
  <rect x="1080" y="856" width="214" height="18" rx="9" fill="#D5CDC0"/>
  <rect x="1080" y="896" width="266" height="18" rx="9" fill="#D5CDC0"/>
  <text x="228" y="252" fill="#FAF8F4" font-family="Arial, sans-serif" font-size="42" font-weight="700">Santa Casa | Painel de Chamadas</text>
  <text x="1080" y="1010" fill="#EEE8DE" font-family="Arial, sans-serif" font-size="28">Tempo real, legibilidade e fluxo seguro em atendimento.</text>
</svg>
